<?xml version="1.0"?>
<svg xmlns="http://www.w3.org/2000/svg" id="Capa_1" enable-background="new 0 0 512.627 512.627" height="512px" viewBox="0 0 512.627 512.627" width="512px" class=""><g><g><g><path d="m328.43 134.741c0-39.553-32.064-71.616-71.616-71.616-39.553 0-71.616 32.064-71.616 71.616v125.712h36v-125.712c0-19.639 15.978-35.616 35.616-35.616s35.616 15.978 35.616 35.616v122.919h36z" fill="#e5e1e5" data-original="#E5E1E5" class=""/><g id="XMLID_166_"><g><path d="m381.543 291.826c0 4.02-.2 8-.58 11.93l-9.88 95.46h-234.56l-3.86-95.46c-.31-3.24-.5-6.52-.56-9.83-.62-37.54 15.36-71.37 41.08-94.63 2.19-1.98 5.04-3.06 7.99-3.06h151.28c2.95 0 5.81 1.09 8 3.07 25.23 22.82 41.09 55.81 41.09 92.52z" fill="#f79595" data-original="#F79595" class="" style="fill:#F9A21A" data-old_color="#f79595"/></g></g><path d="m381.276 283.756h-181.24c-12.213 0-21.186-11.528-18.118-23.35 6.205-23.909 19.327-45.035 37.103-61.11 2.19-1.98 5.04-3.06 7.99-3.06h-45.837c-2.95 0-5.8 1.08-7.99 3.06-25.72 23.26-41.7 57.09-41.08 94.63.06 3.31.25 6.59.56 9.83l3.86 95.46h30.29 15.547 188.723l9.88-95.46c.38-3.93.58-7.91.58-11.93-.001-2.712-.097-5.401-.268-8.07z" fill="#f37c7c" data-original="#F37C7C" class="active-path" style="fill:#F78D07" data-old_color="#f37c7c"/><path d="m282.812 303.756-6.046-19.093c-.771-2.436-.208-5.072 1.418-7.043 4.276-5.182 6.703-11.947 6.272-19.284-.813-13.829-12.051-25.107-25.877-25.965-16.094-.999-29.458 11.759-29.458 27.637 0 6.681 2.366 12.808 6.305 17.592 1.63 1.98 2.208 4.62 1.433 7.065l-6.045 19.091-9.618 27.379h72.748z" fill="#f37c7c" data-original="#F37C7C" class="active-path" style="fill:#F78D07" data-old_color="#f37c7c"/><path d="m236.86 284.665-6.045 19.091-9.618 27.379h72.748l-11.133-27.379-6.046-19.093c-.095-.3-.169-.603-.224-.907h-39.459c-.054.305-.128.609-.223.909z" fill="#ee6161" data-original="#EE6161" class=""/><g><path d="m479.154 449.502h-445.681c-14.345 0-25.974-11.629-25.974-25.974v-93.798c0-14.345 11.629-25.974 25.974-25.974h445.68c14.345 0 25.974 11.629 25.974 25.974v93.798c0 14.345-11.629 25.974-25.973 25.974z" fill="#efedef" data-original="#EFEDEF" class=""/><g fill="#b3dafe"><circle cx="256.313" cy="376.629" r="18.279" data-original="#B3DAFE" class="" style="fill:#F9A21A" data-old_color="#B3DAFE"/><circle cx="174.983" cy="376.629" r="18.279" data-original="#B3DAFE" class="" style="fill:#F9A21A" data-old_color="#B3DAFE"/><circle cx="93.653" cy="376.629" r="18.279" data-original="#B3DAFE" class="" style="fill:#F9A21A" data-old_color="#B3DAFE"/><circle cx="337.644" cy="376.629" r="18.279" data-original="#B3DAFE" class="" style="fill:#F9A21A" data-old_color="#B3DAFE"/><circle cx="418.974" cy="376.629" r="18.279" data-original="#B3DAFE" class="" style="fill:#F9A21A" data-old_color="#B3DAFE"/></g></g></g><g><path d="m479.153 296.256h-25.919c-4.143 0-7.5 3.358-7.5 7.5s3.357 7.5 7.5 7.5h25.919c10.187 0 18.474 8.287 18.474 18.474v93.798c0 10.187-8.287 18.474-18.474 18.474h-445.679c-10.187 0-18.474-8.287-18.474-18.474v-93.798c0-10.187 8.287-18.474 18.474-18.474h387.799c4.143 0 7.5-3.358 7.5-7.5s-3.357-7.5-7.5-7.5h-32.318c.051-1.486.085-2.968.085-4.435 0-37.293-15.877-73.042-43.56-98.082-2.699-2.441-6.006-4.048-9.551-4.688v-15.839c0-4.142-3.357-7.5-7.5-7.5s-7.5 3.358-7.5 7.5v15.524h-21v-53.996c0-23.774-19.342-43.116-43.116-43.116s-43.116 19.342-43.116 43.116v53.996h-21v-53.996c0-35.354 28.762-64.116 64.116-64.116s64.116 28.762 64.116 64.116v6.509c0 4.142 3.357 7.5 7.5 7.5s7.5-3.358 7.5-7.5v-6.509c0-43.625-35.491-79.116-79.116-79.116s-79.116 35.491-79.116 79.116v54.31c-3.545.639-6.852 2.246-9.549 4.686-7.675 6.943-14.535 14.782-20.387 23.299-2.346 3.414-1.48 8.083 1.934 10.429 3.416 2.347 8.084 1.48 10.429-1.934 5.192-7.556 11.277-14.509 18.088-20.67.802-.725 1.855-1.125 2.966-1.125h151.271c1.111 0 2.167.4 2.971 1.127 24.544 22.2 38.621 53.895 38.621 86.957 0 1.465-.037 2.947-.094 4.435h-85.627l-4.35-13.864c5.667-6.869 8.499-15.568 7.974-24.496-1.041-17.72-15.185-31.911-32.898-33.011-9.822-.603-19.178 2.755-26.329 9.475-7.051 6.627-11.095 15.975-11.095 25.648 0 8.142 2.847 16.083 8.016 22.36.034.042.048.077.063.063l-4.378 13.824h-85.629c-.031-.818-.077-1.642-.09-2.451-.235-14.256 2.063-28.227 6.829-41.526 1.397-3.899-.63-8.193-4.53-9.59-3.898-1.398-8.193.631-9.59 4.53-5.378 15.007-7.971 30.764-7.707 46.834.012.728.056 1.469.081 2.204h-91.213c-18.458.002-33.474 15.018-33.474 33.476v93.798c0 18.458 15.016 33.474 33.474 33.474h445.68c18.457 0 33.474-15.016 33.474-33.474v-93.798c-.001-18.458-15.018-33.474-33.475-33.474zm-250.456-161.515c0-15.503 12.613-28.116 28.116-28.116s28.116 12.613 28.116 28.116v53.996h-56.232zm12.519 138.092c-3.006-3.65-4.595-8.084-4.595-12.824 0-5.632 2.261-10.858 6.367-14.718 4.102-3.855 9.484-5.781 15.126-5.434 9.985.62 18.267 8.93 18.854 18.92.303 5.135-1.32 10.132-4.57 14.07-3.276 3.972-4.316 9.236-2.782 14.08l2.954 9.329h-31.513l2.954-9.327c1.532-4.842.488-10.111-2.795-14.096z" data-original="#000000" class=""/><path d="m230.535 376.629c0 14.214 11.564 25.779 25.779 25.779s25.779-11.564 25.779-25.779-11.564-25.779-25.779-25.779-25.779 11.565-25.779 25.779zm36.558 0c0 5.943-4.836 10.779-10.779 10.779s-10.779-4.835-10.779-10.779 4.835-10.779 10.779-10.779 10.779 4.836 10.779 10.779z" data-original="#000000" class=""/><path d="m149.204 376.629c0 14.214 11.564 25.779 25.779 25.779s25.779-11.564 25.779-25.779-11.564-25.779-25.779-25.779c-14.214 0-25.779 11.565-25.779 25.779zm36.558 0c0 5.943-4.835 10.779-10.779 10.779-5.943 0-10.779-4.835-10.779-10.779s4.835-10.779 10.779-10.779 10.779 4.836 10.779 10.779z" data-original="#000000" class=""/><path d="m67.874 376.629c0 14.214 11.564 25.779 25.779 25.779 14.214 0 25.779-11.564 25.779-25.779s-11.564-25.779-25.779-25.779-25.779 11.565-25.779 25.779zm36.558 0c0 5.943-4.835 10.779-10.779 10.779s-10.779-4.835-10.779-10.779 4.835-10.779 10.779-10.779c5.943 0 10.779 4.836 10.779 10.779z" data-original="#000000" class=""/><path d="m311.865 376.629c0 14.214 11.564 25.779 25.778 25.779 14.215 0 25.779-11.564 25.779-25.779s-11.564-25.779-25.779-25.779c-14.213 0-25.778 11.565-25.778 25.779zm36.558 0c0 5.943-4.836 10.779-10.779 10.779s-10.778-4.835-10.778-10.779 4.835-10.779 10.778-10.779 10.779 4.836 10.779 10.779z" data-original="#000000" class=""/><path d="m393.195 376.629c0 14.214 11.564 25.779 25.779 25.779 14.214 0 25.778-11.564 25.778-25.779s-11.564-25.779-25.778-25.779-25.779 11.565-25.779 25.779zm36.558 0c0 5.943-4.835 10.779-10.778 10.779s-10.779-4.835-10.779-10.779 4.836-10.779 10.779-10.779 10.778 4.836 10.778 10.779z" data-original="#000000" class=""/></g></g></g> </svg>
