<?xml version="1.0"?>
<svg xmlns="http://www.w3.org/2000/svg" height="512px" viewBox="0 0 64 64" width="512px" class=""><g><g id="Layer_14" data-name="Layer 14"><rect fill="#f7d881" height="34" rx="4" width="38" x="4" y="28" data-original="#F7D881" class="" data-old_color="#f7d881" style="fill:#F9A21A"/><path d="m61 39-3.31-.74a13.56 13.56 0 0 1 -8.69-6.26 13.56 13.56 0 0 1 -8.69 6.26l-3.31.74a28 28 0 0 0 11.2 22.4l.8.6.8-.6a28 28 0 0 0 11.2-22.4z" fill="#78b75b" data-original="#78B75B" class=""/><path d="m43.86 57.35c8-2.16 14.14-9.46 15.74-18.66l-1.91-.43a13.56 13.56 0 0 1 -8.69-6.26 13.56 13.56 0 0 1 -8.69 6.26l-3.31.74a28 28 0 0 0 6.86 18.35z" fill="#96cc7f" data-original="#96CC7F" class=""/><path d="m8 28h5v-10a10 10 0 0 1 20 0v10h5a4.09 4.09 0 0 1 1 .14v-10.14a16 16 0 0 0 -32 0v10.14a4.09 4.09 0 0 1 1-.14z" fill="#c1c8d1" data-original="#C1C8D1" class="" style="fill:#ACC1DB" data-old_color="#c1c8d1"/><path d="m2 36h12v18h-12z" fill="#f5b95b" data-original="#F5B95B" class="" data-old_color="#f5b95b" style="fill:#F5B95B"/><g fill="#c1c8d1"><path d="m2 41h12v2h-12z" data-original="#C1C8D1" class="" style="fill:#ACC1DB" data-old_color="#C1C8D1"/><path d="m2 47h12v2h-12z" data-original="#C1C8D1" class="" style="fill:#ACC1DB" data-old_color="#C1C8D1"/><path d="m25 46.55v-8.55a2 2 0 0 0 -2-2 2 2 0 0 0 -2 2v8.55a4 4 0 1 0 4 0z" data-original="#C1C8D1" class="" style="fill:#ACC1DB" data-old_color="#C1C8D1"/></g><circle cx="49" cy="47" fill="#ebf7fe" r="6" data-original="#EBF7FE" class=""/><path d="m49 51a1 1 0 0 1 -.8-.4l-3-4 1.6-1.2 2 2.71 4.28-8.56 1.78.9-5 10a1 1 0 0 1 -.8.55z" fill="#c18e5c" data-original="#C18E5C" class="active-path" style="fill:#F9A21A" data-old_color="#c18e5c"/></g></g> </svg>
