<svg height="512" viewBox="0 0 64 64" width="512" xmlns="http://www.w3.org/2000/svg" xmlns:xlink="http://www.w3.org/1999/xlink"><linearGradient id="New_Gradient_Swatch_1" gradientUnits="userSpaceOnUse" x1="21" x2="21" y1="1.362" y2="65.055"><stop offset="0" stop-color="#fff33b"/><stop offset=".014" stop-color="#fee72e"/><stop offset=".042" stop-color="#fed51b"/><stop offset=".07" stop-color="#fdca10"/><stop offset=".1" stop-color="#fdc70c"/><stop offset=".4" stop-color="#f3903f"/><stop offset=".8" stop-color="#ed683c"/><stop offset="1" stop-color="#e93e3a"/></linearGradient><linearGradient id="New_Gradient_Swatch_1-2" x1="32" x2="32" xlink:href="#New_Gradient_Swatch_1" y1="1.362" y2="65.055"/><linearGradient id="New_Gradient_Swatch_1-4" x1="40" x2="40" xlink:href="#New_Gradient_Swatch_1" y1="1.362" y2="65.055"/><g id="animal_feed-feed-shop-store-animal_feeds" data-name="animal feed-feed-shop-store-animal feeds"><path d="m20 47h2v2h-2z" fill="url(#New_Gradient_Swatch_1)"/><path d="m59 56h-2v-27.1a5.017 5.017 0 0 0 4-4.9.808.808 0 0 0 -.01-.16l-1.73-10.33a2.978 2.978 0 0 0 -2.95-2.51h-7.31v-6a3.009 3.009 0 0 0 -3-3h-28a3.009 3.009 0 0 0 -3 3v6h-7.31a2.978 2.978 0 0 0 -2.95 2.51l-1.73 10.33a.808.808 0 0 0 -.01.16 5.017 5.017 0 0 0 4 4.9v27.1h-2a3 3 0 0 0 0 6h54a3 3 0 0 0 0-6zm-6-43h3.31a.989.989 0 0 1 .98.84l1.71 10.24a3 3 0 0 1 -6-.08zm-4 8v-8h2v11a3 3 0 0 1 -6 0h1a3.009 3.009 0 0 0 3-3zm-32-16a1 1 0 0 1 1-1h28a1 1 0 0 1 1 1v16a1 1 0 0 1 -1 1h-28a1 1 0 0 1 -1-1zm26 19a3 3 0 0 1 -6 0zm-8 0a3 3 0 0 1 -6 0zm-8 0a3 3 0 0 1 -6 0zm-14-11h2v8a3.009 3.009 0 0 0 3 3h1a3 3 0 0 1 -6 0zm-1 14a5 5 0 0 0 8 0 5 5 0 0 0 8 0 5 5 0 0 0 8 0 5 5 0 0 0 8 0 5 5 0 0 0 8 0 4.994 4.994 0 0 0 3 1.89v27.11h-30v-13a7 7 0 0 0 -14 0v13h-2v-27.11a4.994 4.994 0 0 0 3-1.89zm11 16v13h-10v-13a5 5 0 0 1 10 0zm-18-18.92 1.71-10.24a.989.989 0 0 1 .98-.84h3.31v11a3 3 0 0 1 -6 .08zm54 35.92h-54a1 1 0 0 1 0-2h54a1 1 0 0 1 0 2z" fill="url(#New_Gradient_Swatch_1-2)"/><path d="m45 10a4 4 0 0 0 -8 0h-10a4 4 0 1 0 -6.64 3 4 4 0 1 0 6.64 3h10a4 4 0 1 0 6.64-3 4 4 0 0 0 1.36-3zm-4 4a2 2 0 1 1 -2 2 1.89 1.89 0 0 1 .13-.67 1 1 0 0 0 -.95-1.33h-12.36a1 1 0 0 0 -.95 1.33 1.89 1.89 0 0 1 .13.67 2 2 0 1 1 -2-2 1 1 0 0 0 0-2 2 2 0 1 1 2-2 1.89 1.89 0 0 1 -.13.67 1 1 0 0 0 .95 1.33h12.36a1 1 0 0 0 .95-1.33 1.89 1.89 0 0 1 -.13-.67 2 2 0 1 1 2 2 1 1 0 0 0 0 2z" fill="url(#New_Gradient_Swatch_1-2)"/><g fill="url(#New_Gradient_Swatch_1-4)"><path d="m50 32h-20a3.009 3.009 0 0 0 -3 3v16a3.009 3.009 0 0 0 3 3h20a3.009 3.009 0 0 0 3-3v-16a3.009 3.009 0 0 0 -3-3zm1 19a1 1 0 0 1 -1 1h-20a1 1 0 0 1 -1-1v-16a1 1 0 0 1 1-1h20a1 1 0 0 1 1 1z"/><path d="m50 40a4 4 0 0 0 -8 0h-4a4 4 0 1 0 -6.64 3 4 4 0 1 0 6.64 3h4a4 4 0 1 0 6.64-3 4 4 0 0 0 1.36-3zm-4 4a2 2 0 1 1 -2 2 1.89 1.89 0 0 1 .13-.67 1 1 0 0 0 -.95-1.33h-6.36a1 1 0 0 0 -.95 1.33 1.89 1.89 0 0 1 .13.67 2 2 0 1 1 -2-2 1 1 0 0 0 0-2 2 2 0 1 1 2-2 1.89 1.89 0 0 1 -.13.67 1 1 0 0 0 .95 1.33h6.36a1 1 0 0 0 .95-1.33 1.89 1.89 0 0 1 -.13-.67 2 2 0 1 1 2 2 1 1 0 0 0 0 2z"/></g></g></svg>